<?xml version="1.0" encoding="UTF-8"?>
<svg version="1.1" xmlns="http://www.w3.org/2000/svg" width="1000" height="1000">
<path d="M0 0 C0.72876974 0.24178401 1.45753948 0.48356803 2.20839316 0.73267883 C4.63464303 1.53924356 7.05794463 2.35431651 9.4813385 3.16941833 C11.22601928 3.75135492 12.97087666 4.33276228 14.71589661 4.91368103 C19.4423442 6.48878152 24.16629113 8.07126183 28.88982081 9.65508771 C33.83047737 11.31031651 38.77340508 12.95873477 43.71609497 14.60787964 C53.070831 17.73026666 62.42351112 20.85876521 71.7754665 23.98946947 C82.42438752 27.55402052 93.07558493 31.11174509 103.72697818 34.66890061 C125.63339654 41.98497128 147.53694499 49.30960182 169.43861389 56.63987732 C170.09861389 55.97987732 170.75861389 55.31987732 171.43861389 54.63987732 C174.93861389 54.32737732 174.93861389 54.32737732 178.43861389 54.63987732 C180.62922994 57.92580139 180.68688665 58.8620906 180.67912292 62.67019653 C180.68324692 64.22879395 180.68324692 64.22879395 180.68745422 65.81887817 C180.68026367 66.95823318 180.67307312 68.0975882 180.66566467 69.27146912 C180.66595673 70.47159637 180.66624878 71.67172363 180.66654968 72.90821838 C180.66539428 76.19935628 180.65535715 79.49024391 180.64140177 82.7813375 C180.62890751 86.22065225 180.62772494 89.65997026 180.62535095 93.0993042 C180.61913234 99.61223288 180.60271639 106.1250945 180.58265197 112.63799363 C180.56030482 120.0526648 180.54930253 127.46733916 180.5392611 134.88203561 C180.51835047 150.13468837 180.48316711 165.3872742 180.43861389 180.63987732 C181.04576233 180.77007263 181.65291077 180.90026794 182.27845764 181.03440857 C186.40167175 182.19010149 188.82781743 184.7763375 191.25111389 188.20237732 C193.11425603 193.59568351 193.58574454 199.28482855 191.71205139 204.76487732 C189.11696014 209.65968357 185.66990433 212.89611384 180.43861389 214.63987732 C173.25612589 215.33753937 168.25949876 215.03523936 162.43861389 210.63987732 C157.64315006 205.46582423 157.08502682 201.27774173 157.15736389 194.43284607 C157.69951627 189.04897171 160.08933159 185.92334097 164.00111389 182.20237732 C166.43861389 180.63987732 166.43861389 180.63987732 169.43861389 180.63987732 C169.43861389 141.69987732 169.43861389 102.75987732 169.43861389 62.63987732 C138.74179585 73.85602237 108.04776304 85.07720157 77.37394714 96.35572815 C69.80161903 99.13982914 62.22769326 101.91956438 54.65345764 104.69847107 C51.26211236 105.94303974 47.87079027 107.18767158 44.47947693 108.43232727 C42.30331653 109.23084808 40.12706877 110.02913087 37.95072937 110.8271637 C34.94124177 111.93074668 31.93208095 113.03521635 28.92298889 114.13987732 C28.03268478 114.46608566 27.14238068 114.79229401 26.22509766 115.12838745 C22.2736353 116.57988349 18.33474418 118.04392021 14.43861389 119.63987732 C14.95810608 120.67886169 15.47759827 121.71784607 16.01283264 122.78831482 C19.82142639 130.40550232 23.63002014 138.02268982 27.43861389 145.63987732 C48.11200333 141.21320102 67.80757941 135.47528403 87.43861389 127.63987732 C86.85195694 139.41730304 85.67499384 151.0468079 84.22377014 162.74534607 C84.00556979 164.52651338 83.7875922 166.307708 83.56982422 168.08892822 C83.11663039 171.78608539 82.65984429 175.48277656 82.20057678 179.17918396 C81.61320513 183.91014527 81.03650316 188.64234045 80.46257877 193.37494946 C80.01695032 197.03782087 79.56502062 200.6998941 79.11124992 204.36176491 C78.89584372 206.10738034 78.68255776 207.85325882 78.47146797 209.59940147 C78.17674928 212.03066377 77.87337074 214.46069534 77.56776428 216.89060974 C77.48301849 217.60490646 77.39827271 218.31920319 77.31095886 219.05514526 C76.822032 222.86202678 76.04786124 226.14986788 74.43861389 229.63987732 C73.77861389 229.63987732 73.11861389 229.63987732 72.43861389 229.63987732 C73.12020569 230.89647156 73.12020569 230.89647156 73.81556702 232.17845154 C75.49614606 235.28148992 77.17298414 238.38648839 78.8473053 241.49290466 C79.57334818 242.83811431 80.30088197 244.18252036 81.02992249 245.52610779 C82.07631715 247.4551755 83.11735248 249.38704996 84.15736389 251.31956482 C84.64952393 252.22277969 84.64952393 252.22277969 85.15162659 253.14424133 C87.43861389 257.41213391 87.43861389 257.41213391 87.43861389 259.63987732 C88.37764809 259.68625304 89.31668228 259.73262877 90.28417206 259.78040981 C100.94434328 260.36914917 111.46672385 261.51025185 122.05384827 262.86473083 C123.85908719 263.09190473 125.66438169 263.31863729 127.46972656 263.54496765 C132.31836805 264.15407249 137.16621916 264.76926349 142.01394081 265.38564038 C147.09966484 266.03119618 152.18610917 266.67102678 157.2724762 267.31149292 C166.88080382 268.52222532 176.48848295 269.73802518 186.09593344 270.95569605 C197.04360065 272.34297467 207.99198804 273.72452783 218.94043636 275.10562623 C241.44062977 277.94405518 263.93991989 280.78958951 286.43861389 283.63987732 C286.43861389 286.63987732 286.43861389 286.63987732 284.63783264 288.58518982 C283.39453186 289.66413513 283.39453186 289.66413513 282.12611389 290.76487732 C281.20701233 291.56538513 280.28791077 292.36589294 279.34095764 293.19065857 C275.7325659 296.2356944 272.08428861 299.22700695 268.41517639 302.19847107 C265.09077024 304.92518215 261.82263355 307.71067754 258.56361389 310.51487732 C250.13344454 317.76576823 241.70082759 325.01069664 233.06361389 332.01487732 C227.94048322 336.18208856 222.96266461 340.50300189 217.98597717 344.84251404 C213.50129872 348.74396786 208.93388681 352.52465639 204.31361389 356.26487732 C200.80313751 359.16483607 197.37028662 362.1474587 193.93861389 365.13987732 C188.80633733 369.61522248 183.60676115 373.97994858 178.31361389 378.26487732 C174.80313636 381.16483702 171.37031454 384.14748927 167.93861389 387.13987732 C162.78561335 391.63255092 157.56997412 396.02239803 152.25502014 400.32347107 C148.89595739 403.08619536 145.60492635 405.92212085 142.31361389 408.76487732 C137.14292792 413.22755865 131.88230518 417.51018048 126.43861389 421.63987732 C127.09861389 425.26987732 127.75861389 428.89987732 128.43861389 432.63987732 C129.42861389 432.96987732 130.41861389 433.29987732 131.43861389 433.63987732 C131.45786926 434.50516052 131.47712463 435.37044373 131.4969635 436.26194763 C131.95340967 447.07139055 134.21603808 456.96570614 137.00111389 467.38987732 C137.64006033 469.82515261 138.2751636 472.26136649 138.90686035 474.6985321 C139.29695866 476.1989791 139.69180759 477.69820141 140.09207153 479.19596863 C140.85712172 482.10169208 141.43861389 484.62016791 141.43861389 487.63987732 C142.09861389 487.30987732 142.75861389 486.97987732 143.43861389 486.63987732 C158.1973771 485.50960385 171.34291672 489.21151738 182.68861389 498.82737732 C187.37804574 503.27425235 190.61312867 507.84763261 193.43861389 513.63987732 C193.85111389 514.42362732 194.26361389 515.20737732 194.68861389 516.01487732 C199.24924813 526.14962008 199.37276307 540.26688269 195.81361389 550.76487732 C195.07184513 552.41325234 194.28048985 554.04031301 193.43861389 555.63987732 C193.02611389 556.48550232 192.61361389 557.33112732 192.18861389 558.20237732 C186.76941454 568.3017943 178.12213792 575.55137485 167.43861389 579.63987732 C166.77861389 579.63987732 166.11861389 579.63987732 165.43861389 579.63987732 C165.74154358 580.87141541 166.04447327 582.10295349 166.35658264 583.37181091 C167.47706835 587.929674 168.59453347 592.48827309 169.71107483 597.04710388 C170.19527287 599.02224194 170.68029616 600.99717788 171.16615295 602.97190857 C171.86329873 605.80601956 172.5574992 608.64083787 173.25111389 611.47581482 C173.57922058 612.80556839 173.57922058 612.80556839 173.91395569 614.16218567 C174.21426697 615.39323532 174.21426697 615.39323532 174.52064514 616.64915466 C174.69829407 617.37307404 174.87594299 618.09699341 175.05897522 618.84284973 C175.43861389 620.63987732 175.43861389 620.63987732 175.43861389 622.63987732 C171.89426962 621.29532034 168.63062196 619.72759387 165.32533264 617.87425232 C164.33702454 617.32108337 163.34871643 616.76791443 162.33045959 616.19798279 C161.27302551 615.60130798 160.21559143 615.00463318 159.12611389 614.38987732 C158.02033997 613.76871033 156.91456604 613.14754333 155.77528381 612.5075531 C147.22694917 607.68921323 138.75293763 602.74902681 130.29359436 597.77635193 C120.86092333 592.25404551 111.27892055 587.0211849 101.64491272 581.85984802 C100.05835854 580.9825645 98.50562875 580.04307051 96.97840881 579.06614685 C92.60351675 576.60934406 87.83571883 576.08019743 82.93861389 575.20237732 C81.77531555 574.9906488 80.61201721 574.77892029 79.41346741 574.56077576 C69.11259109 572.77258277 58.76867871 571.51111476 48.37611389 570.38987732 C47.61540588 570.30706512 46.85469788 570.22425293 46.07093811 570.13893127 C26.75000197 568.0630571 7.55419121 567.43263891 -11.87388611 567.45237732 C-13.52804535 567.45328369 -13.52804535 567.45328369 -15.21562195 567.45420837 C-42.06084934 567.49404602 -68.4355639 569.39984445 -95.0120697 573.1559906 C-98.10534704 573.57770443 -101.19566654 573.93104232 -104.29966736 574.26097107 C-119.0424576 576.09964736 -130.86187795 583.21485907 -143.37828064 590.7341156 C-147.05644857 592.93627689 -150.77522577 595.0576503 -154.50669861 597.16770935 C-160.05724035 600.3072889 -165.57882865 603.49790934 -171.10484314 606.68040466 C-174.29026615 608.51476922 -177.47752928 610.34590654 -180.66566467 612.17555237 C-181.9180788 612.89521821 -183.16978208 613.61612271 -184.42073059 614.33833313 C-186.17424082 615.3506668 -187.93027032 616.35863283 -189.68638611 617.36643982 C-190.69958923 617.94990173 -191.71279236 618.53336365 -192.75669861 619.13450623 C-195.31482987 620.50754221 -197.84388324 621.626413 -200.56138611 622.63987732 C-197.43831026 608.2553574 -194.03064618 593.94449176 -190.56138611 579.63987732 C-191.1516156 579.46537048 -191.74184509 579.29086365 -192.34996033 579.11106873 C-202.93615149 575.8143684 -210.6590417 569.01153867 -216.56138611 559.63987732 C-222.93426807 547.45691336 -224.6028466 534.82384882 -221.87779236 521.22972107 C-220.95114878 518.55745018 -219.87797862 516.1414031 -218.56138611 513.63987732 C-218.14888611 512.79425232 -217.73638611 511.94862732 -217.31138611 511.07737732 C-211.02072239 499.35386767 -200.63507894 492.17420684 -188.25669861 487.83128357 C-182.04502 486.18166196 -172.4028568 484.71914197 -166.56138611 487.63987732 C-166.45834167 487.0053363 -166.35529724 486.37079529 -166.24913025 485.71702576 C-165.13431392 479.20251902 -163.63532537 472.86267946 -161.94639587 466.47483826 C-159.04665812 455.50350374 -156.42568418 445.03883946 -156.56138611 433.63987732 C-155.57138611 433.30987732 -154.58138611 432.97987732 -153.56138611 432.63987732 C-152.90138611 429.00987732 -152.24138611 425.37987732 -151.56138611 421.63987732 C-152.19302673 421.12940857 -152.82466736 420.61893982 -153.47544861 420.09300232 C-159.52176719 415.17927944 -165.46773854 410.16838808 -171.36875916 405.08201599 C-174.8714704 402.06938816 -178.40808316 399.11023409 -181.99888611 396.20237732 C-187.10446075 392.05926741 -192.05938664 387.75757282 -197.01426697 383.43699646 C-200.64876462 380.27521894 -204.31659454 377.17137526 -208.06138611 374.13987732 C-213.14947816 370.02094566 -218.08142434 365.73840398 -223.01451111 361.43675232 C-226.6489511 358.27508501 -230.31668429 355.1713026 -234.06138611 352.13987732 C-238.47807554 348.56446206 -242.77918996 344.87388384 -247.06138611 341.13987732 C-252.21989922 336.64239755 -257.44295705 332.2499228 -262.76060486 327.94065857 C-267.24136231 324.25981319 -271.62297797 320.46474539 -276.01841736 316.68284607 C-279.37281261 313.79757137 -282.74432351 310.93310772 -286.12388611 308.07737732 C-286.6517572 307.63128113 -287.1796283 307.18518494 -287.72349548 306.72557068 C-288.79092765 305.82382509 -289.85847346 304.92221401 -290.9261322 304.02073669 C-293.76404053 301.62431843 -296.60042216 299.2260961 -299.43638611 296.82737732 C-299.97875916 296.3686322 -300.5211322 295.90988708 -301.0799408 295.4372406 C-304.92050716 292.18689114 -308.74756036 288.92154134 -312.56138611 285.63987732 C-312.23138611 284.97987732 -311.90138611 284.31987732 -311.56138611 283.63987732 C-309.1046848 283.14519992 -306.72714283 282.78413649 -304.24386597 282.48823547 C-303.46869757 282.38852137 -302.69352917 282.28880726 -301.89487082 282.18607152 C-299.27815353 281.85179683 -296.6599724 281.53082232 -294.04161072 281.20970154 C-292.17259538 280.97373529 -290.30368059 280.73697146 -288.43486023 280.49946594 C-283.34260851 279.85475139 -278.24897327 279.22164342 -273.15498805 278.59079123 C-267.82880842 277.92949311 -262.50384266 277.25855669 -257.17871094 276.58888245 C-248.22705378 275.46463403 -239.27451977 274.34759615 -230.32139587 273.23509216 C-219.97593698 271.94951936 -209.63174978 270.65409877 -199.28823274 269.35300052 C-189.34216081 268.10200826 -179.39538945 266.8566728 -169.44822884 265.61436844 C-165.21497828 265.08565854 -160.981949 264.55522501 -156.74908257 264.02344894 C-151.75683528 263.39663201 -146.7639844 262.77485772 -141.77062988 262.1569252 C-139.94029891 261.92964754 -138.11017306 261.70071069 -136.28027534 261.4699707 C-133.77665859 261.15457778 -131.27235665 260.84531151 -128.76779175 260.53755188 C-127.68901234 260.3995241 -127.68901234 260.3995241 -126.5884394 260.25870788 C-121.86926146 259.68761367 -117.30394467 259.56357332 -112.56138611 259.63987732 C-112.29406677 258.77024353 -112.02674744 257.90060974 -111.75132751 257.00462341 C-110.58913568 253.71834359 -109.19646794 250.85679124 -107.52232361 247.80393982 C-106.94224548 246.74046326 -106.36216736 245.67698669 -105.76451111 244.58128357 C-105.16122986 243.48686951 -104.55794861 242.39245544 -103.93638611 241.26487732 C-103.32537048 240.14726013 -102.71435486 239.02964294 -102.08482361 237.87815857 C-100.58136146 235.12964183 -99.0734321 232.3836783 -97.56138611 229.63987732 C-98.55138611 229.30987732 -99.54138611 228.97987732 -100.56138611 228.63987732 C-103.34516424 211.27618221 -105.48448557 193.83258873 -107.63291931 176.38157654 C-108.148926 172.1919762 -108.67186173 168.0032713 -109.19645977 163.81473923 C-109.60387786 160.55337832 -110.00684267 157.29147841 -110.40856361 154.02941132 C-110.59957098 152.48398337 -110.79212246 150.93874539 -110.98631859 149.3937149 C-111.25647644 147.24031145 -111.52038625 145.08622592 -111.78282166 142.93186951 C-112.00907478 141.10374725 -112.00907478 141.10374725 -112.23989868 139.23869324 C-112.5884415 135.33701205 -112.61513569 131.55481527 -112.56138611 127.63987732 C-111.64365417 128.00170105 -111.64365417 128.00170105 -110.7073822 128.37083435 C-91.66196215 135.8280152 -72.61797959 141.62855862 -52.56138611 145.63987732 C-48.27138611 137.38987732 -43.98138611 129.13987732 -39.56138611 120.63987732 C-41.61040549 118.59085794 -42.66394654 118.08623933 -45.32530212 117.13792419 C-46.10995346 116.85509079 -46.8946048 116.57225739 -47.70303345 116.28085327 C-48.56507889 115.97651871 -49.42712433 115.67218414 -50.31529236 115.35862732 C-51.22160904 115.03338577 -52.12792572 114.70814423 -53.06170654 114.37304688 C-55.03793054 113.66442484 -57.01505979 112.95832364 -58.9929657 112.25440979 C-64.36760691 110.3411666 -69.73539641 108.40884049 -75.10435486 106.47972107 C-76.21965576 106.07958298 -77.33495667 105.67944489 -78.48405457 105.2671814 C-89.98930973 101.13624959 -101.46490541 96.92601755 -112.93638611 92.70237732 C-114.95638852 91.95924809 -116.9764081 91.21616556 -118.9964447 90.47312927 C-123.0812777 88.97032896 -127.16589293 87.46693865 -131.25035095 85.96311951 C-141.17607458 82.30883823 -151.10337092 78.65883656 -161.03117371 75.01020813 C-164.15457997 73.86204425 -167.27767569 72.7130389 -170.40074158 71.56394958 C-180.43714096 67.8734026 -190.48011374 64.20629893 -200.56138611 60.63987732 C-200.56138611 59.97987732 -200.56138611 59.31987732 -200.56138611 58.63987732 C-176.43699932 50.52056358 -152.30690906 42.41841102 -128.16990566 34.3366766 C-116.96292936 30.58382672 -105.75789085 26.82537395 -94.55723572 23.05369568 C-84.79528281 19.76649794 -75.02986565 16.48984541 -65.26013523 13.22583205 C-60.08676896 11.49702933 -54.9152967 9.76298068 -49.74793816 8.01629448 C-44.88417431 6.37241533 -40.01590186 4.74267776 -35.14380836 3.12365913 C-33.3566549 2.52702429 -31.57120924 1.92524541 -29.78765106 1.31794739 C-27.35098669 0.48912609 -24.90883594 -0.32091534 -22.46444702 -1.12661743 C-21.76112053 -1.37076907 -21.05779404 -1.6149207 -20.33315462 -1.86647087 C-12.98145241 -4.24331755 -7.07486886 -2.39940434 0 0 Z " fill="#F6A500" transform="translate(512.5613861083984,215.36012268066406)"/>
<path d="M0 0 C1.35313156 0.19571769 2.7063243 0.39101274 4.05957031 0.5859375 C95.90685787 14.00407084 183.38405943 53.79202129 253.16796875 118.38671875 C255.75113869 120.77036108 258.36819248 123.10790961 261 125.4375 C268.84377289 132.48552781 276.39372885 139.91480179 283.23046875 147.94921875 C286.15951156 151.34380478 289.22907705 154.61099128 292.27734375 157.8984375 C296.0495116 162.10079672 299.50456636 166.56781155 303 171 C303.62656494 171.79245117 304.25312988 172.58490234 304.89868164 173.40136719 C315.40801822 186.77210887 324.96344524 200.59668469 334 215 C334.4336084 215.68723145 334.8672168 216.37446289 335.31396484 217.08251953 C352.86877812 245.05705873 366.76228245 274.98798778 378 306 C378.3501416 306.95455078 378.7002832 307.90910156 379.06103516 308.89257812 C389.62566299 337.97435613 396.30742814 368.43052327 400.71289062 399.01501465 C400.98111839 400.86945837 401.25970028 402.72239624 401.5390625 404.57519531 C407.05535827 442.69673933 406.73961728 484.93344408 401 523 C400.80428231 524.35313156 400.60898726 525.7063243 400.4140625 527.05957031 C386.99592916 618.90685787 347.20797871 706.38405943 282.61328125 776.16796875 C280.22963892 778.75113869 277.89209039 781.36819248 275.5625 784 C268.51447219 791.84377289 261.08519821 799.39372885 253.05078125 806.23046875 C249.65619522 809.15951156 246.38900872 812.22907705 243.1015625 815.27734375 C238.89920328 819.0495116 234.43218845 822.50456636 230 826 C229.20754883 826.62656494 228.41509766 827.25312988 227.59863281 827.89868164 C214.22789113 838.40801822 200.40331531 847.96344524 186 857 C185.31276855 857.4336084 184.62553711 857.8672168 183.91748047 858.31396484 C155.94294127 875.86877812 126.01201222 889.76228245 95 901 C94.04544922 901.3501416 93.09089844 901.7002832 92.10742188 902.06103516 C63.02564387 912.62566299 32.56947673 919.30742814 1.98498535 923.71289062 C0.13054163 923.98111839 -1.72239624 924.25970028 -3.57519531 924.5390625 C-41.69673933 930.05535827 -83.93344408 929.73961728 -122 924 C-123.35313156 923.80428231 -124.7063243 923.60898726 -126.05957031 923.4140625 C-217.90685787 909.99592916 -305.38405943 870.20797871 -375.16796875 805.61328125 C-377.75113869 803.22963892 -380.36819248 800.89209039 -383 798.5625 C-390.84377289 791.51447219 -398.39372885 784.08519821 -405.23046875 776.05078125 C-408.15951156 772.65619522 -411.22907705 769.38900872 -414.27734375 766.1015625 C-418.0495116 761.89920328 -421.50456636 757.43218845 -425 753 C-425.93984741 751.81132324 -425.93984741 751.81132324 -426.89868164 750.59863281 C-437.40801822 737.22789113 -446.96344524 723.40331531 -456 709 C-456.4336084 708.31276855 -456.8672168 707.62553711 -457.31396484 706.91748047 C-474.86877812 678.94294127 -488.76228245 649.01201222 -500 618 C-500.3501416 617.04544922 -500.7002832 616.09089844 -501.06103516 615.10742188 C-511.62566299 586.02564387 -518.30742814 555.56947673 -522.71289062 524.98498535 C-522.98111839 523.13054163 -523.25970028 521.27760376 -523.5390625 519.42480469 C-529.05535827 481.30326067 -528.73961728 439.06655592 -523 401 C-522.80428231 399.64686844 -522.60898726 398.2936757 -522.4140625 396.94042969 C-508.99592916 305.09314213 -469.20797871 217.61594057 -404.61328125 147.83203125 C-402.22963892 145.24886131 -399.89209039 142.63180752 -397.5625 140 C-390.51447219 132.15622711 -383.08519821 124.60627115 -375.05078125 117.76953125 C-371.65619522 114.84048844 -368.38900872 111.77092295 -365.1015625 108.72265625 C-360.89920328 104.9504884 -356.43218845 101.49543364 -352 98 C-351.20754883 97.37343506 -350.41509766 96.74687012 -349.59863281 96.10131836 C-336.22789113 85.59198178 -322.40331531 76.03655476 -308 67 C-306.96915283 66.3495874 -306.96915283 66.3495874 -305.91748047 65.68603516 C-277.94294127 48.13122188 -248.01201222 34.23771755 -217 23 C-216.04544922 22.6498584 -215.09089844 22.2997168 -214.10742188 21.93896484 C-185.02564387 11.37433701 -154.56947673 4.69257186 -123.98498535 0.28710938 C-122.13054163 0.01888161 -120.27760376 -0.25970028 -118.42480469 -0.5390625 C-80.30326067 -6.05535827 -38.06655592 -5.73961728 0 0 Z M-234 63 C-235.53672363 63.67071533 -235.53672363 63.67071533 -237.10449219 64.35498047 C-252.95511784 71.33184244 -268.12540882 79.13590408 -283 88 C-283.90621094 88.5377002 -284.81242188 89.07540039 -285.74609375 89.62939453 C-303.63976483 100.30590882 -320.25063038 112.27418154 -336.2734375 125.57763672 C-337.78245014 126.82077977 -339.31152349 128.03949046 -340.84375 129.25390625 C-357.42914148 142.41731184 -373.35706087 157.78622866 -387 174 C-387.90879689 175.04675467 -388.81909904 176.09220338 -389.73046875 177.13671875 C-396.46015954 184.87179606 -402.88045578 192.77256346 -409 201 C-409.73621582 201.98129883 -409.73621582 201.98129883 -410.48730469 202.98242188 C-426.61605327 224.54771437 -440.25807962 247.74244337 -452.00244141 271.96044922 C-453.00782156 274.01599152 -454.0395496 276.05672441 -455.07421875 278.09765625 C-492.46581226 353.00811214 -502.61638099 441.29370165 -473.625 599.8125 C-469.58441774 611.75905233 -465.05651053 623.44847185 -460 635 C-459.55285645 636.02448242 -459.10571289 637.04896484 -458.64501953 638.10449219 C-451.66815756 653.95511784 -443.86409592 669.12540882 -435 684 C-434.4622998 684.90621094 -433.92459961 685.81242188 -433.37060547 686.74609375 C-422.69409118 704.63976483 -410.72581846 721.25063038 -397.42236328 737.2734375 C-396.17922023 738.78245014 -394.96050954 740.31152349 -393.74609375 741.84375 C-380.58268816 758.42914148 -365.21377134 774.35706087 -349 788 C-347.95324533 788.90879689 -346.90779662 789.81909904 -345.86328125 790.73046875 C-338.12820394 797.46015954 -330.22743654 803.88045578 -322 810 C-321.34580078 810.49081055 -320.69160156 810.98162109 -320.01757812 811.48730469 C-298.45228563 827.61605327 -275.25755663 841.25807962 -251.03955078 853.00244141 C-248.98400848 854.00782156 -246.94327559 855.0395496 -244.90234375 856.07421875 C-169.99188786 893.46581226 -81.70629835 903.61638099 76.8125 874.625 C88.75905233 870.58441774 100.44847185 866.05651053 112 861 C113.02448242 860.55285645 114.04896484 860.10571289 115.10449219 859.64501953 C130.95511784 852.66815756 146.12540882 844.86409592 161 836 C161.90621094 835.4622998 162.81242188 834.92459961 163.74609375 834.37060547 C181.63976483 823.69409118 198.25063038 811.72581846 214.2734375 798.42236328 C215.78245014 797.17922023 217.31152349 795.96050954 218.84375 794.74609375 C235.42914148 781.58268816 251.35706087 766.21377134 265 750 C265.90879689 748.95324533 266.81909904 747.90779662 267.73046875 746.86328125 C274.46015954 739.12820394 280.88045578 731.22743654 287 723 C287.49081055 722.34580078 287.98162109 721.69160156 288.48730469 721.01757812 C304.61605327 699.45228563 318.25807962 676.25755663 330.00244141 652.03955078 C331.00782156 649.98400848 332.0395496 647.94327559 333.07421875 645.90234375 C370.46581226 570.99188786 380.61638099 482.70629835 351.625 324.1875 C347.58441774 312.24094767 343.05651053 300.55152815 338 289 C337.32928467 287.46327637 337.32928467 287.46327637 336.64501953 285.89550781 C329.66815756 270.04488216 321.86409592 254.87459118 313 240 C312.19344971 238.64068359 312.19344971 238.64068359 311.37060547 237.25390625 C300.69409118 219.36023517 288.72581846 202.74936962 275.42236328 186.7265625 C274.17922023 185.21754986 272.96050954 183.68847651 271.74609375 182.15625 C258.58268816 165.57085852 243.21377134 149.64293913 227 136 C225.95324533 135.09120311 224.90779662 134.18090096 223.86328125 133.26953125 C216.12820394 126.53984046 208.22743654 120.11954422 200 114 C199.34580078 113.50918945 198.69160156 113.01837891 198.01757812 112.51269531 C176.45228563 96.38394673 153.25755663 82.74192038 129.03955078 70.99755859 C126.98400848 69.99217844 124.94327559 68.9604504 122.90234375 67.92578125 C47.99188786 30.53418774 -40.29370165 20.38361901 -234 63 Z " fill="#0A2B5D" transform="translate(561,38)"/>
<path d="M0 0 C3.0050086 -0.00435076 6.00972459 -0.01813696 9.01464844 -0.04101562 C37.83306803 -0.25538844 65.94907553 1.85921135 94.41992188 6.55273438 C95.34575073 6.70164124 96.27157959 6.8505481 97.22546387 7.00396729 C110.14536522 9.08681366 122.82023506 11.55353964 135.43554688 15.07617188 C139.588984 16.22556187 143.63345463 16.81553831 147.91992188 17.24023438 C147.93917725 18.10551758 147.95843262 18.97080078 147.97827148 19.86230469 C148.43471766 30.6717476 150.69734606 40.5660632 153.48242188 50.99023438 C154.12136831 53.42550966 154.75647159 55.86172355 155.38816833 58.29888916 C155.77826664 59.79933615 156.17311557 61.29855846 156.57337952 62.79632568 C157.33842971 65.70204914 157.91992188 68.22052497 157.91992188 71.24023438 C158.57992188 70.91023437 159.23992187 70.58023438 159.91992188 70.24023438 C174.67868508 69.1099609 187.8242247 72.81187444 199.16992188 82.42773438 C203.85935373 86.87460941 207.09443665 91.44798967 209.91992188 97.24023438 C210.33242188 98.02398438 210.74492188 98.80773437 211.16992188 99.61523438 C215.73055612 109.74997713 215.85407105 123.86723974 212.29492188 134.36523438 C211.55315311 136.0136094 210.76179783 137.64067006 209.91992188 139.24023438 C209.50742187 140.08585938 209.09492187 140.93148437 208.66992188 141.80273438 C203.25072252 151.90215136 194.6034459 159.15173191 183.91992188 163.24023438 C183.25992187 163.24023438 182.59992188 163.24023438 181.91992188 163.24023438 C182.22285156 164.47177246 182.52578125 165.70331055 182.83789062 166.97216797 C183.95837634 171.53003105 185.07584145 176.08863015 186.19238281 180.64746094 C186.67658086 182.622599 187.16160415 184.59753494 187.64746094 186.57226562 C188.34460671 189.40637661 189.03880719 192.24119492 189.73242188 195.07617188 C190.06052856 196.40592545 190.06052856 196.40592545 190.39526367 197.76254272 C190.69557495 198.99359238 190.69557495 198.99359238 191.00195312 200.24951172 C191.17960205 200.97343109 191.35725098 201.69735046 191.5402832 202.44320679 C191.91992188 204.24023438 191.91992188 204.24023438 191.91992188 206.24023438 C188.3755776 204.89567739 185.11192994 203.32795093 181.80664062 201.47460938 C180.81833252 200.92144043 179.83002441 200.36827148 178.81176758 199.79833984 C177.7543335 199.20166504 176.69689941 198.60499023 175.60742188 197.99023438 C174.50164795 197.36906738 173.39587402 196.74790039 172.2565918 196.10791016 C163.70825715 191.28957028 155.23424562 186.34938386 146.77490234 181.37670898 C137.34223131 175.85440257 127.76022853 170.62154196 118.1262207 165.46020508 C116.53966652 164.58292155 114.98693673 163.64342756 113.4597168 162.66650391 C109.08482473 160.20970111 104.31702681 159.68055449 99.41992188 158.80273438 C98.25662354 158.59100586 97.0933252 158.37927734 95.89477539 158.16113281 C85.59389907 156.37293983 75.24998669 155.11147181 64.85742188 153.99023438 C64.09671387 153.90742218 63.33600586 153.82460999 62.55224609 153.73928833 C43.23130995 151.66341416 24.03549919 151.03299597 4.60742188 151.05273438 C2.95326263 151.05364075 2.95326263 151.05364075 1.26568604 151.05456543 C-25.57954136 151.09440307 -51.95425592 153.0002015 -78.53076172 156.75634766 C-81.62403905 157.17806149 -84.71435855 157.53139938 -87.81835938 157.86132812 C-102.56114961 159.70000442 -114.38056996 166.81521613 -126.89697266 174.33447266 C-130.57514059 176.53663394 -134.29391779 178.65800736 -138.02539062 180.76806641 C-143.57593237 183.90764595 -149.09752067 187.09826639 -154.62353516 190.28076172 C-157.80895817 192.11512627 -160.99622129 193.94626359 -164.18435669 195.77590942 C-165.43677082 196.49557526 -166.68847409 197.21647977 -167.93942261 197.93869019 C-169.69293283 198.95102386 -171.44896234 199.95898989 -173.20507812 200.96679688 C-174.72488281 201.84198975 -174.72488281 201.84198975 -176.27539062 202.73486328 C-178.83352189 204.10789927 -181.36257526 205.22677005 -184.08007812 206.24023438 C-180.95700228 191.85571445 -177.5493382 177.54484881 -174.08007812 163.24023438 C-174.96542236 162.97847412 -174.96542236 162.97847412 -175.86865234 162.71142578 C-186.4548435 159.41472545 -194.17773372 152.61189573 -200.08007812 143.24023438 C-206.45296009 131.05727041 -208.12153862 118.42420588 -205.39648438 104.83007812 C-204.4698408 102.15780724 -203.39667064 99.74176016 -202.08007812 97.24023438 C-201.66757812 96.39460937 -201.25507813 95.54898438 -200.83007812 94.67773438 C-194.53941441 82.95422472 -184.15377095 75.77456389 -171.77539062 71.43164062 C-165.56371202 69.78201902 -155.92154882 68.31949903 -150.08007812 71.24023438 C-149.92551147 70.28842285 -149.92551147 70.28842285 -149.76782227 69.31738281 C-148.65300594 62.80287608 -147.15401739 56.46303651 -145.46508789 50.07519531 C-142.56535013 39.1038608 -139.94437619 28.63919651 -140.08007812 17.24023438 C-139.44730957 17.1097168 -138.81454102 16.97919922 -138.16259766 16.84472656 C-135.17646914 16.22794979 -132.19073482 15.60929111 -129.20507812 14.99023438 C-128.10607178 14.76279541 -127.00706543 14.53535645 -125.87475586 14.30102539 C-120.3108353 13.1436813 -114.76035948 11.9522219 -109.22607422 10.66088867 C-92.89280506 6.87326977 -76.28229162 4.52432861 -59.64257812 2.55273438 C-58.65064453 2.43341553 -57.65871094 2.31409668 -56.63671875 2.19116211 C-37.8039254 0.06463099 -18.92652294 0.02336322 0 0 Z " fill="#F6A600" transform="translate(496.080078125,631.759765625)"/>
<path d="M0 0 C0.72876974 0.24178401 1.45753948 0.48356803 2.20839316 0.73267883 C4.63464303 1.53924356 7.05794463 2.35431651 9.4813385 3.16941833 C11.22601928 3.75135492 12.97087666 4.33276228 14.71589661 4.91368103 C19.4423442 6.48878152 24.16629113 8.07126183 28.88982081 9.65508771 C33.83047737 11.31031651 38.77340508 12.95873477 43.71609497 14.60787964 C53.070831 17.73026666 62.42351112 20.85876521 71.7754665 23.98946947 C82.42438752 27.55402052 93.07558493 31.11174509 103.72697818 34.66890061 C125.63339654 41.98497128 147.53694499 49.30960182 169.43861389 56.63987732 C170.09861389 55.97987732 170.75861389 55.31987732 171.43861389 54.63987732 C174.93861389 54.32737732 174.93861389 54.32737732 178.43861389 54.63987732 C180.62922994 57.92580139 180.68688665 58.8620906 180.67912292 62.67019653 C180.68324692 64.22879395 180.68324692 64.22879395 180.68745422 65.81887817 C180.68026367 66.95823318 180.67307312 68.0975882 180.66566467 69.27146912 C180.66595673 70.47159637 180.66624878 71.67172363 180.66654968 72.90821838 C180.66539428 76.19935628 180.65535715 79.49024391 180.64140177 82.7813375 C180.62890751 86.22065225 180.62772494 89.65997026 180.62535095 93.0993042 C180.61913234 99.61223288 180.60271639 106.1250945 180.58265197 112.63799363 C180.56030482 120.0526648 180.54930253 127.46733916 180.5392611 134.88203561 C180.51835047 150.13468837 180.48316711 165.3872742 180.43861389 180.63987732 C181.04576233 180.77007263 181.65291077 180.90026794 182.27845764 181.03440857 C186.40167175 182.19010149 188.82781743 184.7763375 191.25111389 188.20237732 C193.11425603 193.59568351 193.58574454 199.28482855 191.71205139 204.76487732 C189.11696014 209.65968357 185.66990433 212.89611384 180.43861389 214.63987732 C173.25612589 215.33753937 168.25949876 215.03523936 162.43861389 210.63987732 C157.64315006 205.46582423 157.08502682 201.27774173 157.15736389 194.43284607 C157.69951627 189.04897171 160.08933159 185.92334097 164.00111389 182.20237732 C166.43861389 180.63987732 166.43861389 180.63987732 169.43861389 180.63987732 C169.43861389 141.69987732 169.43861389 102.75987732 169.43861389 62.63987732 C138.74179585 73.85602237 108.04776304 85.07720157 77.37394714 96.35572815 C69.80161903 99.13982914 62.22769326 101.91956438 54.65345764 104.69847107 C51.26211236 105.94303974 47.87079027 107.18767158 44.47947693 108.43232727 C42.30331653 109.23084808 40.12706877 110.02913087 37.95072937 110.8271637 C34.94124177 111.93074668 31.93208095 113.03521635 28.92298889 114.13987732 C28.03268478 114.46608566 27.14238068 114.79229401 26.22509766 115.12838745 C22.2736353 116.57988349 18.33474418 118.04392021 14.43861389 119.63987732 C14.95810608 120.67886169 15.47759827 121.71784607 16.01283264 122.78831482 C19.82142639 130.40550232 23.63002014 138.02268982 27.43861389 145.63987732 C48.11200333 141.21320102 67.80757941 135.47528403 87.43861389 127.63987732 C86.85195694 139.41730304 85.67499384 151.0468079 84.22377014 162.74534607 C84.00556979 164.52651338 83.7875922 166.307708 83.56982422 168.08892822 C83.11663039 171.78608539 82.65984429 175.48277656 82.20057678 179.17918396 C81.61320513 183.91014527 81.03650316 188.64234045 80.46257877 193.37494946 C80.01695032 197.03782087 79.56502062 200.6998941 79.11124992 204.36176491 C78.89584372 206.10738034 78.68255776 207.85325882 78.47146797 209.59940147 C78.17674928 212.03066377 77.87337074 214.46069534 77.56776428 216.89060974 C77.48301849 217.60490646 77.39827271 218.31920319 77.31095886 219.05514526 C76.82367649 222.84922245 76.16456272 226.20773827 74.43861389 229.63987732 C72.69642639 230.42503357 72.69642639 230.42503357 70.56361389 230.70237732 C66.85713329 231.28419294 63.51209001 232.24167301 59.98158264 233.50315857 C53.28946135 235.77501695 46.53803093 237.32219116 39.62611389 238.76487732 C37.89264709 239.1419281 37.89264709 239.1419281 36.12416077 239.52659607 C19.80292185 242.98840244 4.19460919 244.04451144 -12.43638611 244.01487732 C-13.99743073 244.01505859 -13.99743073 244.01505859 -15.5900116 244.01524353 C-31.29447707 243.98926427 -46.20737372 243.1705614 -61.56138611 239.63987732 C-63.13904757 239.31082405 -64.71716083 238.98392803 -66.29576111 238.65940857 C-74.45509094 236.91910707 -82.32247714 234.54078758 -90.19419861 231.78831482 C-93.62256883 230.61900989 -97.07583624 229.62340564 -100.56138611 228.63987732 C-103.34516424 211.27618221 -105.48448557 193.83258873 -107.63291931 176.38157654 C-108.148926 172.1919762 -108.67186173 168.0032713 -109.19645977 163.81473923 C-109.60387786 160.55337832 -110.00684267 157.29147841 -110.40856361 154.02941132 C-110.59957098 152.48398337 -110.79212246 150.93874539 -110.98631859 149.3937149 C-111.25647644 147.24031145 -111.52038625 145.08622592 -111.78282166 142.93186951 C-111.93365707 141.71312134 -112.08449249 140.49437317 -112.23989868 139.23869324 C-112.5884415 135.33701205 -112.61513569 131.55481527 -112.56138611 127.63987732 C-111.64365417 128.00170105 -111.64365417 128.00170105 -110.7073822 128.37083435 C-91.66196215 135.8280152 -72.61797959 141.62855862 -52.56138611 145.63987732 C-48.27138611 137.38987732 -43.98138611 129.13987732 -39.56138611 120.63987732 C-41.61040549 118.59085794 -42.66394654 118.08623933 -45.32530212 117.13792419 C-46.10995346 116.85509079 -46.8946048 116.57225739 -47.70303345 116.28085327 C-48.99610161 115.82435143 -48.99610161 115.82435143 -50.31529236 115.35862732 C-51.22160904 115.03338577 -52.12792572 114.70814423 -53.06170654 114.37304688 C-55.03793054 113.66442484 -57.01505979 112.95832364 -58.9929657 112.25440979 C-64.36760691 110.3411666 -69.73539641 108.40884049 -75.10435486 106.47972107 C-76.77730621 105.87951393 -76.77730621 105.87951393 -78.48405457 105.2671814 C-89.98930973 101.13624959 -101.46490541 96.92601755 -112.93638611 92.70237732 C-114.95638852 91.95924809 -116.9764081 91.21616556 -118.9964447 90.47312927 C-123.0812777 88.97032896 -127.16589293 87.46693865 -131.25035095 85.96311951 C-141.17607458 82.30883823 -151.10337092 78.65883656 -161.03117371 75.01020813 C-164.15457997 73.86204425 -167.27767569 72.7130389 -170.40074158 71.56394958 C-180.43714096 67.8734026 -190.48011374 64.20629893 -200.56138611 60.63987732 C-200.56138611 59.97987732 -200.56138611 59.31987732 -200.56138611 58.63987732 C-176.43699932 50.52056358 -152.30690906 42.41841102 -128.16990566 34.3366766 C-116.96292936 30.58382672 -105.75789085 26.82537395 -94.55723572 23.05369568 C-84.79528281 19.76649794 -75.02986565 16.48984541 -65.26013523 13.22583205 C-60.08676896 11.49702933 -54.9152967 9.76298068 -49.74793816 8.01629448 C-44.88417431 6.37241533 -40.01590186 4.74267776 -35.14380836 3.12365913 C-33.3566549 2.52702429 -31.57120924 1.92524541 -29.78765106 1.31794739 C-27.35098669 0.48912609 -24.90883594 -0.32091534 -22.46444702 -1.12661743 C-21.76112053 -1.37076907 -21.05779404 -1.6149207 -20.33315462 -1.86647087 C-12.98145241 -4.24331755 -7.07486886 -2.39940434 0 0 Z " fill="#0B2C5C" transform="translate(512.5613861083984,215.36012268066406)"/>
<path d="M0 0 C2.65344305 0.62643173 5.33182892 1.03718874 8.02172852 1.47729492 C8.09171448 9.59730622 8.14478338 17.71718826 8.17716503 25.83742809 C8.19271867 29.60933898 8.21376442 33.38104119 8.24804688 37.15283203 C8.28101332 40.80332252 8.29865863 44.45361428 8.30636024 48.10424232 C8.31183777 49.48628168 8.32253051 50.86831208 8.33891869 52.25026512 C8.43181634 60.42042713 7.82763759 67.77543021 5.70429993 75.68208313 C3.77605052 83.57849571 5.39387204 90.34191023 7.35375977 98.07104492 C8.42571991 103.53741476 8.26673206 108.93295534 8.02172852 114.47729492 C1.97617013 113.83725882 -3.76262602 112.65528143 -9.66577148 111.22729492 C-41.96042432 103.70420283 -73.76726875 100.66340216 -106.97827148 99.47729492 C-106.97827148 67.46729492 -106.97827148 35.45729492 -106.97827148 2.47729492 C-109.61827148 2.47729492 -112.25827148 2.47729492 -114.97827148 2.47729492 C-114.97827148 34.48729492 -114.97827148 66.49729492 -114.97827148 99.47729492 C-124.21827148 99.80729492 -133.45827148 100.13729492 -142.97827148 100.47729492 C-149.5412969 101.14550133 -149.5412969 101.14550133 -156.08764648 101.95385742 C-158.75119222 102.31220594 -161.38388346 102.62668556 -164.05639648 102.87573242 C-182.53100521 104.62287098 -200.89320467 108.09851558 -218.80004883 112.953125 C-222.62606794 113.97749479 -225.97403419 114.75647481 -229.97827148 114.47729492 C-230.27939027 107.66308822 -230.16166323 101.42852295 -228.47827148 94.78979492 C-226.46884912 86.79994883 -226.34385556 80.58613675 -228.48339844 72.61914062 C-230.25391169 65.1123937 -230.36224517 57.88186819 -230.27124023 50.20776367 C-230.26562688 48.79145259 -230.26136504 47.37513558 -230.25837708 45.95881653 C-230.24706481 42.2779355 -230.21771999 38.59742445 -230.18426514 34.91668701 C-230.15326569 31.14201865 -230.13980873 27.36728897 -230.12475586 23.5925293 C-230.09283305 16.22061804 -230.04180791 8.84900883 -229.97827148 1.47729492 C-225.03976327 0.38704036 -220.09993899 -0.69698891 -215.15893555 -1.77587891 C-213.48703402 -2.14178705 -211.81546923 -2.50923804 -210.14428711 -2.87841797 C-191.43626476 -7.00883375 -172.88125886 -10.02119514 -153.79077148 -11.71020508 C-152.33686005 -11.83952927 -152.33686005 -11.83952927 -150.85357666 -11.97146606 C-100.57120881 -16.34591829 -48.86829784 -13.24011593 0 0 Z " fill="#0C2C5D" transform="translate(610.978271484375,666.522705078125)"/>
<path d="M0 0 C0.61182129 0.24121582 1.22364258 0.48243164 1.85400391 0.73095703 C19.85753087 7.78018757 37.9213983 13.42047959 56.83203125 17.45703125 C59 18 59 18 60 19 C71.93102033 21.05074859 83.90388839 21.34386356 95.98266602 21.31567383 C98.79938579 21.31251471 101.61504951 21.33608151 104.43164062 21.36132812 C121.14597434 21.42054099 137.21167938 19.27594506 153.4375 15.25 C154.47680664 14.99613525 155.51611328 14.74227051 156.58691406 14.48071289 C171.42393092 10.75564096 185.80256531 5.66608974 200 0 C199.41334305 11.77742572 198.23637995 23.40693059 196.78515625 35.10546875 C196.5669559 36.88663606 196.34897831 38.66783068 196.13121033 40.4490509 C195.6780165 44.14620807 195.2212304 47.84289924 194.76196289 51.53930664 C194.17459124 56.27026795 193.59788927 61.00246313 193.02396488 65.73507214 C192.57833643 69.39794355 192.12640673 73.06001678 191.67263603 76.72188759 C191.45722983 78.46750302 191.24394387 80.2133815 191.03285408 81.95952415 C190.73813538 84.39078645 190.43475685 86.82081802 190.12915039 89.25073242 C190.00203171 90.32217751 190.00203171 90.32217751 189.87234497 91.41526794 C189.3850626 95.20934513 188.72594883 98.56786095 187 102 C185.2578125 102.78515625 185.2578125 102.78515625 183.125 103.0625 C179.4185194 103.64431562 176.07347612 104.60179569 172.54296875 105.86328125 C165.85084746 108.13513963 159.09941704 109.68231384 152.1875 111.125 C151.03185547 111.37636719 149.87621094 111.62773437 148.68554688 111.88671875 C132.36430796 115.34852512 116.7559953 116.40463412 100.125 116.375 C98.56395538 116.37518127 98.56395538 116.37518127 96.97137451 116.37536621 C81.26690904 116.34938695 66.35401239 115.53068408 51 112 C49.42233854 111.67094673 47.84422528 111.34405071 46.265625 111.01953125 C38.10629517 109.27922975 30.23890897 106.90091026 22.3671875 104.1484375 C18.93881728 102.97913258 15.48554986 101.98352832 12 101 C9.21622187 83.63630489 7.07690054 66.19271141 4.9284668 48.74169922 C4.4124601 44.55209888 3.88952438 40.36339398 3.36492634 36.17486191 C2.95750825 32.913501 2.55454344 29.65160109 2.15282249 26.389534 C1.96181513 24.84410606 1.76926365 23.29886807 1.57506752 21.75383759 C1.30490967 19.60043413 1.04099986 17.4463486 0.77856445 15.29199219 C0.62772903 14.07324402 0.47689362 12.85449585 0.32148743 11.59881592 C-0.02705539 7.69713473 -0.05374958 3.91493795 0 0 Z " fill="#0B2C5C" transform="translate(400,343)"/>
<path d="M0 0 C3.0050086 -0.00435076 6.00972459 -0.01813696 9.01464844 -0.04101562 C37.83306803 -0.25538844 65.94907553 1.85921135 94.41992188 6.55273438 C95.34575073 6.70164124 96.27157959 6.8505481 97.22546387 7.00396729 C110.84898286 9.20024545 124.25373254 11.77856468 137.50683594 15.68701172 C140.95313668 16.47710859 144.40757235 16.83680751 147.91992188 17.24023438 C148.19899768 24.53290924 148.41167391 31.82441994 148.54166794 39.12136841 C148.60409358 42.51073813 148.68858514 45.8964361 148.82519531 49.28369141 C148.97129502 53.18684542 149.03891106 57.08483955 149.09179688 60.99023438 C149.1537323 62.19574951 149.21566772 63.40126465 149.27947998 64.64331055 C149.28231646 68.21274088 149.13703995 70.87887176 147.91992188 74.24023438 C145.12448831 76.86845378 142.37018009 78.63631867 138.99810791 80.45556641 C131.99203918 84.51753872 127.28605754 91.00461565 123.91992188 98.24023438 C123.58992188 98.24023438 123.25992187 98.24023438 122.91992188 98.24023438 C122.91992188 77.78023437 122.91992188 57.32023438 122.91992188 36.24023438 C119.61992188 35.91023437 116.31992187 35.58023438 112.91992188 35.24023438 C109.50527424 34.53506489 106.1241009 33.78895951 102.73242188 32.99023438 C35.68830959 17.97526148 -37.02197494 16.79695803 -103.61164856 34.97045898 C-107.72278567 36.05352126 -110.68539595 36.24023438 -115.08007812 36.24023438 C-115.08007812 56.70023438 -115.08007812 77.16023437 -115.08007812 98.24023438 C-116.61321233 96.19605544 -118.14551392 94.15115099 -119.65820312 92.09179688 C-125.77264861 83.92295913 -125.77264861 83.92295913 -134.1505127 78.33345032 C-136.60499918 77.21872158 -138.22477471 76.21073225 -140.08007812 74.24023438 C-141.22208738 69.92603794 -141.0113345 65.71905617 -140.86132812 61.28320312 C-140.85000854 60.0251033 -140.83868896 58.76700348 -140.82702637 57.47077942 C-140.78986324 54.13659201 -140.71811354 50.80683427 -140.62939453 47.47387695 C-140.54732756 44.06891033 -140.51097147 40.66348453 -140.47070312 37.2578125 C-140.38252863 30.58406687 -140.24868534 23.91240621 -140.08007812 17.24023438 C-139.39985092 17.09957047 -138.71962372 16.95890656 -138.01878357 16.8139801 C-134.89186234 16.16674527 -131.76526612 15.51795312 -128.63867188 14.86914062 C-127.56887085 14.64794556 -126.49906982 14.42675049 -125.39685059 14.19885254 C-119.94377809 13.06613903 -114.50186689 11.90517498 -109.07995605 10.63108826 C-92.80725093 6.82321271 -76.22634277 4.51769938 -59.64257812 2.55273438 C-58.65064453 2.43341553 -57.65871094 2.31409668 -56.63671875 2.19116211 C-37.8039254 0.06463099 -18.92652294 0.02336322 0 0 Z " fill="#FEFDFC" transform="translate(496.080078125,631.759765625)"/>
<path d="M0 0 C2.03069388 3.57092834 2.97282946 7.32887924 3.9453125 11.28515625 C4.12005096 11.98265488 4.29478943 12.6801535 4.474823 13.39878845 C4.84177188 14.86823894 5.20640087 16.33827047 5.56884766 17.80883789 C6.12431033 20.0597053 6.68855194 22.30823978 7.25390625 24.55664062 C7.60989932 25.98684876 7.9653855 27.41718318 8.3203125 28.84765625 C8.57338669 29.85554955 8.57338669 29.85554955 8.83157349 30.88380432 C9.51556191 33.67620063 10 36.11147641 10 39 C10.66 38.67 11.32 38.34 12 38 C26.7587632 36.86972653 39.90430283 40.57164007 51.25 50.1875 C55.93943185 54.63437503 59.17451478 59.20775529 62 65 C62.4125 65.78375 62.825 66.5675 63.25 67.375 C67.81063424 77.50974276 67.93414918 91.62700537 64.375 102.125 C63.63323124 103.77337502 62.84187595 105.40043569 62 107 C61.5875 107.845625 61.175 108.69125 60.75 109.5625 C55.33080064 119.66191698 46.68352403 126.91149754 36 131 C35.34 131 34.68 131 34 131 C34.45439453 132.84730713 34.45439453 132.84730713 34.91796875 134.73193359 C36.03845446 139.28979668 37.15591958 143.84839578 38.27246094 148.40722656 C38.75665898 150.38236462 39.24168227 152.35730056 39.72753906 154.33203125 C40.42468484 157.16614224 41.11888531 160.00096055 41.8125 162.8359375 C42.03123779 163.72243988 42.24997559 164.60894226 42.4753418 165.52230835 C42.67554932 166.34300812 42.87575684 167.16370789 43.08203125 168.00927734 C43.25968018 168.73319672 43.4373291 169.45711609 43.62036133 170.20297241 C44 172 44 172 44 174 C40.45565573 172.65544302 37.19200807 171.08771656 33.88671875 169.234375 C32.40425659 168.40462158 32.40425659 168.40462158 30.8918457 167.55810547 C29.83441162 166.96143066 28.77697754 166.36475586 27.6875 165.75 C26.58172607 165.12883301 25.47595215 164.50766602 24.33666992 163.86767578 C15.78804488 159.04917222 7.3118917 154.11180558 -1.14501953 149.13427734 C-8.98529401 144.53968695 -16.93043235 140.16117641 -24.9597168 135.90576172 C-29.31092458 133.57738647 -33.27404706 131.28624421 -37 128 C-28.66484489 128.46092469 -20.91176867 130.38981896 -12.875 132.5625 C-11.63234375 132.89185547 -10.3896875 133.22121094 -9.109375 133.56054688 C-6.07102635 134.36687786 -3.03472534 135.18015787 0 136 C-0.3860192 131.43876627 -0.3860192 131.43876627 -3.2578125 128.12890625 C-4.20398438 127.61199219 -5.15015625 127.09507812 -6.125 126.5625 C-17.649728 119.73413593 -24.61534216 110.00819989 -28 97 C-30.77854451 85.12803709 -28.9887182 71.60707267 -22.5625 61.18359375 C-14.60571096 50.06398107 -14.60571096 50.06398107 -9.28491211 47.89135742 C-5.70266264 46.28020077 -3.58282698 44.99154277 -1 42 C1.03570081 35.15198597 0.35316577 27.62218713 0.1875 20.5625 C0.18053719 18.57097476 0.17853217 16.57942562 0.18164062 14.58789062 C0.17846135 9.72310939 0.10750102 4.86354904 0 0 Z " fill="#F6A600" transform="translate(644,664)"/>
<path d="M0 0 C2.64 0 5.28 0 8 0 C8 32.01 8 64.02 8 97 C17.24 97 26.48 97 36 97 C65.2012698 99.33061778 94.76695628 104.03306829 123 112 C123 108.37 123 104.74 123 101 C124.5331342 103.04417894 126.06543579 105.08908338 127.578125 107.1484375 C132.47053572 113.66403122 137.30547565 118.53218363 144.4375 122.5 C146.46484375 123.69921875 146.46484375 123.69921875 148 125 C148.5 128.3125 148.5 128.3125 148 131 C141.48709451 130.36403393 135.43597352 128.87964798 129.125 127.1875 C116.1899863 123.85424647 103.22780704 121.7741294 90 120 C88.74622559 119.82726562 87.49245117 119.65453125 86.20068359 119.4765625 C25.92720949 111.22790558 -35.81918881 111.02100961 -95.734375 122.421875 C-98.55118432 122.92054459 -101.27551631 123.23527858 -104.125 123.4375 C-110.93247343 124.00478945 -117.44792075 126.16677575 -124 128 C-126.22650732 128.59340285 -128.45547862 129.17768683 -130.6875 129.75 C-131.61949219 129.99234375 -132.55148437 130.2346875 -133.51171875 130.484375 C-136 131 -136 131 -140 131 C-140.33984375 128.234375 -140.33984375 128.234375 -140 125 C-137.69140625 123.015625 -137.69140625 123.015625 -134.5625 121.25 C-126.18245232 116.07933228 -120.17013923 109.96385069 -116 101 C-115.67 101 -115.34 101 -115 101 C-115 104.63 -115 108.26 -115 112 C-113.24300781 111.55269531 -111.48601562 111.10539063 -109.67578125 110.64453125 C-85.48130941 104.58330325 -61.27936329 99.77713447 -36.33227539 98.21777344 C-33.5375007 97.95681468 -30.76874028 97.46145671 -28 97 C-18.76 97 -9.52 97 0 97 C0 64.99 0 32.98 0 0 Z " fill="#FAFAFA" transform="translate(496,669)"/>
<path d="M0 0 C9.00247603 4.33201854 14.5336786 11.39750604 17.8125 20.6875 C19.88746856 27.36512611 20.18232002 33.87650634 20.1875 40.8125 C20.19974609 41.66392578 20.21199219 42.51535156 20.22460938 43.39257812 C20.2499641 54.48949691 17.78225262 64.88983136 9.93359375 73.18359375 C4.19349952 78.26828127 0.48772877 80.48854023 -7.28515625 80.3046875 C-13.68304485 79.58665108 -17.47119104 74.82220894 -21.39453125 70.13671875 C-27.88420534 61.49960993 -29.38466616 51.83780646 -29.3125 41.25 C-29.30686035 40.37746582 -29.3012207 39.50493164 -29.29541016 38.60595703 C-29.06930939 26.47934452 -26.86698019 15.14938847 -18.1953125 6.12109375 C-12.63316396 1.1676782 -7.56977232 -1.5115926 0 0 Z " fill="#0D2D5C" transform="translate(567,516)"/>
<path d="M0 0 C9.00247603 4.33201854 14.5336786 11.39750604 17.8125 20.6875 C19.88746856 27.36512611 20.18232002 33.87650634 20.1875 40.8125 C20.19974609 41.66392578 20.21199219 42.51535156 20.22460938 43.39257812 C20.2499641 54.48949691 17.78225262 64.88983136 9.93359375 73.18359375 C4.19349952 78.26828127 0.48772877 80.48854023 -7.28515625 80.3046875 C-13.68304485 79.58665108 -17.47119104 74.82220894 -21.39453125 70.13671875 C-27.88420534 61.49960993 -29.38466616 51.83780646 -29.3125 41.25 C-29.30686035 40.37746582 -29.3012207 39.50493164 -29.29541016 38.60595703 C-29.06930939 26.47934452 -26.86698019 15.14938847 -18.1953125 6.12109375 C-12.63316396 1.1676782 -7.56977232 -1.5115926 0 0 Z " fill="#0D2D5C" transform="translate(442,516)"/>
<path d="M0 0 C3.375 -0.1875 3.375 -0.1875 7 0 C9.19061605 3.28592407 9.24827276 4.22221328 9.24050903 8.03031921 C9.24325836 9.06938416 9.24600769 10.1084491 9.24884033 11.17900085 C9.24164978 12.31835587 9.23445923 13.45771088 9.22705078 14.6315918 C9.22734283 15.83171906 9.22763489 17.03184631 9.22793579 18.26834106 C9.22678038 21.55947896 9.21674326 24.85036659 9.20278788 28.14146018 C9.19029362 31.58077493 9.18911105 35.02009294 9.18673706 38.45942688 C9.18051845 44.97235556 9.1641025 51.48521718 9.14403808 57.99811631 C9.12169092 65.41278748 9.11068863 72.82746184 9.10064721 80.24215829 C9.07973658 95.49481105 9.04455322 110.74739688 9 126 C9.60714844 126.13019531 10.21429687 126.26039063 10.83984375 126.39453125 C14.96305786 127.55022418 17.38920354 130.13646018 19.8125 133.5625 C21.67564214 138.95580619 22.14713064 144.64495123 20.2734375 150.125 C17.67834625 155.01980626 14.23129043 158.25623652 9 160 C1.817512 160.69766205 -3.17911514 160.39536204 -9 156 C-13.79546383 150.82594691 -14.35358707 146.63786441 -14.28125 139.79296875 C-13.73909762 134.40909439 -11.3492823 131.28346365 -7.4375 127.5625 C-5 126 -5 126 -2 126 C-2.00184359 125.39315841 -2.00368717 124.78631681 -2.00558662 124.16108608 C-2.04980046 109.37929361 -2.0828735 94.59750755 -2.10362434 79.81566525 C-2.11392663 72.66720641 -2.12796688 65.51879178 -2.15087891 58.37036133 C-2.17084492 52.13808762 -2.18372405 45.90584593 -2.18817699 39.67354113 C-2.19077895 36.37512356 -2.19792975 33.07681867 -2.21146011 29.77842522 C-2.22598161 26.09173022 -2.22797763 22.40522486 -2.22705078 18.71850586 C-2.23424133 17.63093491 -2.24143188 16.54336395 -2.24884033 15.4228363 C-2.23376748 9.880666 -1.86419999 5.23361611 0 0 Z " fill="#F6A500" transform="translate(684,270)"/>
<path d="M0 0 C5.27803455 1.00413996 10.09360911 2.32488766 15.02197266 4.46362305 C22.11781263 7.72407159 22.11781263 7.72407159 29.625 7.1875 C31.09450425 6.48111668 32.55141885 5.74835339 34 5 C36.40990829 4.0495755 38.81753502 3.13679035 41.25 2.25 C42.41015625 1.80140625 43.5703125 1.3528125 44.765625 0.890625 C48.24178841 -0.06657942 49.64670194 -0.20901667 53 1 C54.76098633 3.40844727 54.76098633 3.40844727 56.33203125 6.56640625 C56.90244141 7.69111328 57.47285156 8.81582031 58.06054688 9.97460938 C58.63869141 11.15861328 59.21683594 12.34261719 59.8125 13.5625 C60.41438242 14.76318988 61.0178805 15.96307131 61.62304688 17.16210938 C63.09814065 20.10049618 64.55615061 23.04616829 66 26 C56.37682517 32.41544989 39.11062541 30.31046409 27.92797852 30.26074219 C25.06960789 30.25002665 22.21186729 30.26069997 19.35351562 30.2734375 C8.09276529 30.28071965 -2.85549898 29.62337153 -14 28 C-12.74241557 23.93502792 -11.23747765 20.32309788 -9.1796875 16.6015625 C-8.64472656 15.62832031 -8.10976563 14.65507812 -7.55859375 13.65234375 C-7.00300781 12.65332031 -6.44742187 11.65429688 -5.875 10.625 C-5.31167969 9.60277344 -4.74835938 8.58054687 -4.16796875 7.52734375 C-2.7830669 5.01574208 -1.39363545 2.50676281 0 0 Z " fill="#F5A400" transform="translate(474,335)"/>
<path d="M0 0 C3.625 0.4375 3.625 0.4375 5.6328125 2.46875 C7.97721779 5.96237357 9.54529491 9.49065667 11.125 13.375 C13.20879284 18.47030167 15.42045846 22.94692534 18.625 27.4375 C22.37356939 24.19148607 24.23278165 20.52540751 26.1875 16.0625 C26.77138227 14.76268226 27.35600918 13.46319873 27.94140625 12.1640625 C28.22258301 11.53790039 28.50375977 10.91173828 28.79345703 10.26660156 C32.12573421 2.93676579 32.12573421 2.93676579 34.625 0.4375 C40.73611111 -0.22916667 40.73611111 -0.22916667 43.625 1.9375 C45.88068642 7.57671605 43.60156249 12.88475271 41.5 18.25 C37.56435765 27.17003753 32.92184856 37.13468347 23.625 41.4375 C19.57846172 42.46688254 16.38586868 42.20642375 12.55859375 40.53515625 C2.58997871 34.11700684 -3.41239301 20.52483222 -6.375 9.4375 C-6.55646758 6.62475245 -6.28092086 5.15526257 -5.375 2.4375 C-3.375 0.4375 -3.375 0.4375 0 0 Z " fill="#F7A600" transform="translate(668.375,424.5625)"/>
<path d="M0 0 C3.04809542 2.00728235 3.80021226 3.10426293 4.58984375 6.64453125 C4.72519531 7.42183594 4.86054687 8.19914063 5 9 C2.47891897 8.85775413 -0.04180403 8.71129879 -2.5625 8.5625 C-3.26697266 8.52318359 -3.97144531 8.48386719 -4.69726562 8.44335938 C-9.1798541 8.17481721 -13.56293497 7.69383803 -18 7 C-12.06293782 0.90247668 -8.49515866 -1.12804566 0 0 Z " fill="#16345F" transform="translate(568,627)"/>
<path d="M0 0 C2.81754059 1.39589305 4.61545597 2.86913086 7 5 C7 5.66 7 6.32 7 7 C4.64655194 7.33923576 2.2924516 7.67150534 -0.0625 8 C-0.71927734 8.09539063 -1.37605469 8.19078125 -2.05273438 8.2890625 C-6.40138763 8.88887674 -10.61329071 9.09127093 -15 9 C-14.72608098 5.7129718 -14.18168017 4.21006769 -12 1.6875 C-7.89746869 -0.62017386 -4.60498676 -0.93354928 0 0 Z " fill="#13325E" transform="translate(442,627)"/>
</svg>
